Coordinates
version=1
nRows=7
nColumns=40
inDegrees=yes

Units are S.I. units (second, meters, Newtons, ...)
Angles are in degrees.

endheader
time	pelvis_tilt	pelvis_list	pelvis_rotation	pelvis_tx	pelvis_ty	pelvis_tz	hip_flexion_r	hip_adduction_r	hip_rotation_r	knee_angle_r	knee_angle_r_beta	ankle_angle_r	subtalar_angle_r	mtp_angle_r	hip_flexion_l	hip_adduction_l	hip_rotation_l	knee_angle_l	knee_angle_l_beta	ankle_angle_l	subtalar_angle_l	mtp_angle_l	lumbar_extension	lumbar_bending	lumbar_rotation	arm_flex_r	arm_add_r	arm_rot_r	elbow_flex_r	pro_sup_r	wrist_flex_r	wrist_dev_r	arm_flex_l	arm_add_l	arm_rot_l	elbow_flex_l	pro_sup_l	wrist_flex_l	wrist_dev_l
      1.52000000	      0.30936616	      6.24119430	     -4.32835686	      0.55339218	      0.94159205	      1.46350909	    -11.76390584	    -11.06860670	    -24.46441370	    -25.28103288	     -0.44123726	      8.07722400	      7.78194924	    -13.10429098	     20.28791022	     -4.55070848	     22.92546740	    -14.55226585	     -0.25398495	     -4.48468345	      7.58447649	      4.80958420	     -1.69555569	     -8.43271079	     12.38341467	     13.29944611	    -13.36058868	    -16.67887656	     32.18990600	     89.95437384	      0.00000000	      0.00000000	    -14.87068431	     10.31248541	      6.19656224	     10.00974106	     89.95437384	      0.00000000	      0.00000000
      1.53000000	      0.31325677	      6.56872409	     -4.14707015	      0.56450828	      0.94191288	      1.46089481	    -11.51413966	    -12.03969698	    -24.51837311	    -27.08334053	     -0.47269346	      6.54780232	      7.32807939	    -12.49538478	     20.40889897	     -4.98359395	     21.90565748	    -16.12392311	     -0.28141555	     -3.85053260	      7.38030415	      4.11914043	     -1.43795853	     -8.70374728	     12.10625268	     12.76034323	    -13.06989262	    -16.78859497	     31.76619221	     89.95437384	      0.00000000	      0.00000000	    -14.51999570	     10.24604333	      6.01052286	     10.13300585	     89.95437384	      0.00000000	      0.00000000
      1.54000000	     -0.08801565	      7.10029609	     -3.95827796	      0.57524375	      0.94197778	      1.45810386	    -10.40182878	    -13.42007617	    -24.61590772	    -29.60978912	     -0.51678831	      5.00186606	      7.23324154	    -11.88917922	     20.73977467	     -5.89076978	     20.43662129	    -16.92142871	     -0.29533465	     -3.78472574	      8.27685280	      3.07975293	     -0.72537418	     -9.14866314	     11.92478272	     12.17069565	    -12.70493100	    -17.29931666	     31.21259231	     89.95437384	      0.00000000	      0.00000000	    -14.16853884	     10.16780306	      6.00617054	     10.31551874	     89.95437384	      0.00000000	      0.00000000
      1.55000000	      0.14606125	      7.05504846	     -3.81712854	      0.58642444	      0.94296293	      1.45596253	    -10.11334145	    -13.92934552	    -24.14301217	    -31.63563999	     -0.55214608	      2.99758473	      6.70087589	    -11.20993606	     20.29406922	     -6.05675069	     19.59118098	    -17.99280954	     -0.31403377	     -3.13170703	      8.17304153	      2.72292534	     -0.80828176	     -9.04923960	     11.56581879	     11.55172738	    -12.52050285	    -17.10586878	     30.91541964	     89.95437384	      0.00000000	      0.00000000	    -13.73156039	     10.06702629	      5.71410575	     10.58922563	     89.95437384	      0.00000000	      0.00000000
      1.56000000	     -0.13725946	      7.90872537	     -3.49813132	      0.59761433	      0.94349063	      1.45241495	     -8.96185593	    -15.80215138	    -24.54162645	    -34.26398033	     -0.59801927	      0.39590745	      6.00739380	    -10.08096861	     20.02478600	     -7.78387756	     17.45993462	    -17.93240571	     -0.31297952	     -2.48456898	     11.44798577	      2.00351650	     -0.15045197	     -9.81663509	     11.29578422	     10.77215685	    -12.25452794	    -17.22698777	     30.32104843	     89.95437384	      0.00000000	      0.00000000	    -13.21623417	     10.08480077	      5.08217095	     10.70304937	     89.95437384	      0.00000000	      0.00000000
      1.57000000	      0.02139983	      8.18740658	     -3.36335444	      0.60885075	      0.94469401	      1.44990189	     -8.28554753	    -16.82408717	    -24.22625326	    -36.47001093	     -0.63652177	     -2.66651657	      5.29318926	     -9.20666764	     19.29386092	     -8.40719126	     16.98806481	    -18.31831527	     -0.31971491	     -1.62066699	     11.24516187	      1.69142456	     -0.04171026	    -10.03597126	     11.01112190	     10.18043686	    -12.08911811	    -16.97379898	     29.60953558	     89.95437384	      0.00000000	      0.00000000	    -12.65785355	      9.99792029	      4.86265876	     10.86734029	     89.95437384	      0.00000000	      0.00000000
      1.58000000	      0.10431224	      8.64534111	     -3.22578357	      0.61929138	      0.94578487	      1.44719175	     -7.23792268	    -17.98002797	    -23.48141045	    -38.86720557	     -0.67836071	     -5.93999244	      4.29858609	     -8.22229941	     18.48619372	     -9.35703888	     16.34753944	    -18.17212464	     -0.31716341	     -1.07828491	     11.83043647	      1.59863050	      0.05604531	    -10.43398267	     10.71999173	      9.58120587	    -11.91847178	    -16.77702039	     29.05228368	     89.95437384	      0.00000000	      0.00000000	    -12.00943121	      9.94263086	      4.76473721	     11.20940965	     89.95437384	      0.00000000	      0.00000000
